<svg xmlns="http://www.w3.org/2000/svg" id="Layer_1" data-name="Layer 1" viewBox="0 0 1101.682 211.608"><link xmlns="" type="text/css" rel="stylesheet" id="dark-mode-custom-link"/><link xmlns="" type="text/css" rel="stylesheet" id="dark-mode-general-link"/><style xmlns="" lang="en" type="text/css" id="dark-mode-custom-style"/><style xmlns="" lang="en" type="text/css" id="dark-mode-native-style"/><defs><style>.cls-1{fill:#fff;}</style></defs><path class="cls-1" d="M183.8,67.855h19.754c13-16.306,6.316-66.242,6.316-66.242s-47.522-6.406-66.243,6.315V27.683a37.779,37.779,0,0,1-17.864,32.055v0a37.209,37.209,0,0,1-39.71.163l.009-.018A37.784,37.784,0,0,1,68.137,27.789V8.035C51.83-4.969,1.9,1.72,1.9,1.72S-4.512,49.242,8.209,67.962H27.964a37.771,37.771,0,0,1,31.949,17.7c-.048.024-.1.044-.146.068a37.61,37.61,0,0,1,5.822,20h0A36.368,36.368,0,0,1,60.1,125.439l-.216.394a37.785,37.785,0,0,1-32.092,17.92H8.035C-4.969,160.059,1.72,210,1.72,210s47.522,6.406,66.242-6.315V183.925a37.785,37.785,0,0,1,17.919-32.092c-.023-.045-.041-.091-.064-.136a37.913,37.913,0,0,1,57.859,32.121v19.755c16.307,13,66.242,6.315,66.242,6.315s6.407-47.522-6.315-66.242H183.849a38.192,38.192,0,0,1-37.915-37.914h0a37.593,37.593,0,0,1,5.823-20l-.021-.009A37.781,37.781,0,0,1,183.8,67.855Zm-57.964,37.876a67.7,67.7,0,0,1-2.405,17.666,66.108,66.108,0,0,1-35.331,0,67.78,67.78,0,0,1-2.4-17.666h0A67.738,67.738,0,0,1,88.1,88.065a66.1,66.1,0,0,1,35.33,0,67.7,67.7,0,0,1,2.405,17.666Z"/><path class="cls-1" d="M658.618,97.263c-6.036-9.8-14.761-16.236-25.609-19.943-7.359-2.514-14.912-2.976-22.605-2.567a52.7,52.7,0,0,0-23.921,6.837c-12.239,7.074-19.9,17.757-23.218,31.39-3.432,14.085-2.509,27.911,3.741,41.164a46.9,46.9,0,0,0,21.013,21.945c12.414,6.564,25.71,7.668,39.295,5.513,15.872-2.519,27.16-11.67,34.861-25.484a63.5,63.5,0,0,0,2.8-6.676,10.578,10.578,0,0,0-1.384-.545c-7.268-1.552-14.56-3-21.8-4.688-2.089-.489-2.856.168-3.822,1.9-2.638,4.723-6.313,8.632-11.434,10.579-10.363,3.94-20.291,3.05-29.174-3.956-5.444-4.292-8.28-10.163-9.287-17.3h35.323c13.211,0,26.423-.04,39.634.045,1.888.012,2.679-.54,2.69-2.406.021-3.877.356-7.77.127-11.63A51.14,51.14,0,0,0,658.618,97.263Zm-69.76,19.285a71.923,71.923,0,0,1,3.524-8.091c4.254-7.221,10.856-10.834,19.089-11.62,5.318-.508,10.6-.457,15.472,2.138,6.952,3.7,10.625,9.621,11.621,17.573Z"/><path class="cls-1" d="M460.952,100.554c-2.546-9.044-7.381-16.418-15.591-21.315-7.4-4.414-15.5-5.793-23.951-5.063-12.024,1.038-21.688,6.277-28.334,16.579a10.663,10.663,0,0,1-.881.971V75.783H365.364v104.4h26.879v-2.567q0-26.029.009-52.06c.01-6.717,1.466-12.959,5.914-18.3,6.914-8.307,17.195-9.53,26.292-6.266a16.067,16.067,0,0,1,11.06,13.129,55.918,55.918,0,0,1,.7,9.191c.062,18.09.031,36.181.031,54.271v2.66h26.963c.032-.658.08-1.181.081-1.7,0-19.632.04-39.263-.019-58.895A70.711,70.711,0,0,0,460.952,100.554Z"/><path class="cls-1" d="M532.887,155.112a11.067,11.067,0,0,1-10.256-11.223c-.171-15.073-.124-30.149-.156-45.224a8.944,8.944,0,0,1,.187-1.2h26.7v-23.6H522.414V40.226H498.768c0,.873.026,1.655,0,2.435-.251,6.7-.717,13.361-2.706,19.828C493.9,69.51,489.66,74.605,482.6,77.05c-2.387.827-4.871,1.376-7.346,2.061v18.4h20.159v2.667c0,14.071-.081,28.143.048,42.214a97.382,97.382,0,0,0,1.046,13.188c1.635,11.143,7.8,18.586,18.6,22.208,7.27,2.438,14.7,2.781,22.227,2.195,4.044-.314,8.072-.838,12.067-1.264V155.031c-.653.05-1.181.121-1.71.124C542.755,155.178,537.784,155.554,532.887,155.112Z"/><path class="cls-1" d="M961.441,77.859c-6.262,2.425-11.6,6.155-15.167,11.992-1.226,2-2.187,4.172-3.469,6.651V75.828H915.87V180.234H942.8c0-.911,0-1.7,0-2.491.009-15.612-.02-31.225.051-46.837a31.11,31.11,0,0,1,2.978-13.819c5.231-10.558,14.126-15.265,25.615-14.944,4.667.13,9.3,1.389,14.119,2.161,1.456-9.217,2.977-18.842,4.5-28.51a12.629,12.629,0,0,0-1.36-.408A51.087,51.087,0,0,0,961.441,77.859Z"/><path class="cls-1" d="M1091.641,96.556a50.252,50.252,0,0,0-21.747-17.629c-12.63-5.239-25.748-5.641-39.005-2.214a47.675,47.675,0,0,0-26.183,17.21,51.778,51.778,0,0,0-10.155,23.5,59.784,59.784,0,0,0,1.5,28.194,50.085,50.085,0,0,0,20.795,28.141,52.9,52.9,0,0,0,29.486,8.72c8.914.054,16.47-1.3,23.254-4.319,19.007-8.458,29.4-23.37,31.714-43.761A53.069,53.069,0,0,0,1091.641,96.556Zm-24.454,51.873c-5.323,6.033-12.222,8.832-20.355,8.714-11.88-.172-22.187-8.821-25.128-20.319-3.393-13.26,1.078-27.024,13.523-34.053a22.113,22.113,0,0,1,10.438-2.846c15.055-.153,24.8,8.713,27.781,20.335C1076.1,130.594,1074.387,140.27,1067.187,148.429Z"/><path class="cls-1" d="M735.892,29.041V180.234h26.755V29.006A28.1,28.1,0,0,1,749.31,32.1,28.658,28.658,0,0,1,735.892,29.041Z"/><path class="cls-1" d="M682.766,29.041V180.234h26.756V29.006A28.1,28.1,0,0,1,696.185,32.1,28.662,28.662,0,0,1,682.766,29.041Z"/><path class="cls-1" d="M312.958,29.041V180.234h26.755V29.006A28.094,28.094,0,0,1,326.377,32.1,28.659,28.659,0,0,1,312.958,29.041Z"/><path class="cls-1" d="M787.882,32c.716-.04,1.247-.1,1.777-.094,20.377.054,40.758-.1,61.131.251,12.783.223,24.779,3.683,35.111,11.551,8.859,6.748,14.064,15.83,15.966,26.763,2.6,14.975-1.251,28.193-11.524,39.332-7.491,8.122-17.041,12.951-27.824,15.022a96.45,96.45,0,0,1-15.76,1.457c-9.178.226-18.366.063-27.55.063h-2.565v53.887H787.882Zm28.761,70.651c.49.054.749.108,1.008.108,10.184,0,20.367.047,30.55-.024a27.393,27.393,0,0,0,17.359-5.826,21.48,21.48,0,0,0,6.385-26.343c-3.918-8.554-11.431-12.584-20.419-13.044-11.161-.57-22.368-.244-33.555-.292a8.219,8.219,0,0,0-1.328.211Z"/></svg>